<svg viewBox="0 0 39 39" fill="none" xmlns="http://www.w3.org/2000/svg" class="header__Icon-sc-uhyhoh-1 jZfNrI">
  <defs></defs>
  <path fill="#ff3568" d="M2.392 24.596a1.898 1.898 0 010-2.766 2.107 2.107 0 012.889 0l14.442 13.83a1.898 1.898 0 010 2.767 2.107 2.107 0 01-2.888 0L2.392 24.597z"></path>
  <path fill="#ff3568" fill-rule="evenodd" clip-rule="evenodd" d="M.399 10.46l7.383-7.07c4.887-4.68 10.468-4.315 14.835-.132.555.53 1.248 1.46 1.664 2.058.173.232.277.398.416.53.277.266.555.333 1.144.167 3.64-.963 6.828.1 9.878 3.02 4.264 4.084 4.715 9.56-.693 14.739l-10.364 9.925c-.554.531-1.005.498-1.56-.033L.435 11.954c-.555-.53-.59-.962-.035-1.493zm15.147 3.752l1.768-1.693c.901-.863 1.04-2.058-.035-3.087-1.04-.996-2.322-.896-3.223-.033l-1.768 1.693c-.555.53-.52.962.035 1.493l1.663 1.594c.555.53 1.006.564 1.56.033zm8.458 8.1l4.644-4.449c1.352-1.294 1.63-2.49.486-3.585-1.11-1.062-2.392-.83-3.744.465l-4.644 4.448c-.555.531-.52.963.034 1.494l1.664 1.593c.555.531 1.005.564 1.56.033z"></path></svg>
