<svg width="120" height="40" viewBox="0 0 120 40" fill="none" xmlns="http://www.w3.org/2000/svg">
<g clip-path="url(#clip0)">
<path d="M51.4995 8.60759C51.058 9.56399 50.6164 10.5766 50.1196 11.533C49.0156 13.7271 47.8565 16.3713 46.2006 18.1716C44.8206 19.7468 44.7102 20.4219 42.3919 21.4346C41.9503 21.6596 41.7295 21.7159 41.1224 21.7159C40.46 21.7159 40.184 21.097 40.184 20.5907C40.184 19.9156 40.2392 19.353 40.4048 18.6779C40.9568 16.5963 42.2263 14.1772 43.1647 12.2644C43.6063 11.3643 44.0478 10.5204 44.4894 9.62025C43.2751 9.11392 41.012 7.76371 41.012 7.76371C41.012 7.76371 40.6256 8.21378 40.5704 8.32629C39.5216 9.67651 38.6385 11.083 37.5345 12.3769C36.3753 13.7834 34.885 15.6399 33.6155 16.9339C32.6771 17.8903 31.6283 18.7342 30.5796 19.5781C29.7516 20.2532 28.8684 20.872 27.9301 21.4909C27.7645 21.6034 27.3781 21.6034 27.2677 21.4346C27.1021 21.3221 27.1021 20.9283 27.1573 20.7595C27.2677 20.4219 27.4333 20.0844 27.5989 19.7468C28.4269 18.2841 29.4204 16.3713 30.2484 14.9086C30.7452 14.0084 31.0212 13.052 31.1316 12.0394C31.242 10.7454 30.414 8.88888 28.8684 8.27004C28.3165 8.045 27.7093 7.87622 27.2125 7.93248C25.5014 8.15752 24.287 9.22644 23.1279 10.4079C22.4103 11.1392 21.8031 11.9269 21.1408 12.7145H20.5888C20.7544 11.9831 20.644 11.308 20.4784 10.5766C19.9816 8.43881 17.7737 7.31364 15.7866 7.93248C14.241 8.43881 13.0267 9.39521 12.0331 10.6892C11.6467 11.1955 11.2052 11.8143 10.7636 12.3207H10.1564V12.2644C10.1564 11.9831 10.2668 11.4768 10.2668 11.1955C10.2116 9.67651 9.54922 8.43881 8.11408 7.76371C7.01012 7.25738 5.90616 7.48241 4.85741 7.81997C2.87029 8.49507 1.37994 9.84528 0.220791 11.6456C0.165593 11.8706 0 12.0956 0 12.0956L2.70469 14.121C2.70469 14.121 3.03588 13.7271 3.42226 13.2771C3.97424 12.602 4.69181 12.0394 5.35419 11.4768C5.68537 11.1955 6.18215 11.083 6.62374 11.3643C7.01012 11.6456 6.89972 12.0394 6.84453 12.4332C6.67893 14.0647 5.90616 15.5274 5.13339 16.8776C4.02944 18.7342 2.5943 21.0408 1.37994 22.8973C1.26955 23.0661 1.21435 23.2349 1.10396 23.4037L4.80221 25.654C4.80221 25.654 4.9126 25.5415 5.0782 25.3165C5.68537 24.3601 6.29255 23.4037 6.89972 22.4473C7.67249 21.2658 8.44526 20.0844 9.21803 18.9029C9.60442 18.2841 10.1564 17.1589 10.598 16.5963C11.2604 15.7525 11.9227 14.9086 12.6403 14.0647C13.1371 13.5021 13.6891 12.9395 14.2962 12.5457C14.7378 12.2644 15.2898 12.0394 15.7866 12.0394C16.6145 12.0394 17.1113 12.9395 16.7801 13.8959C16.5041 14.7398 16.1178 15.5274 15.6762 16.315C15.069 17.4402 14.241 19.0717 13.5787 20.1969C12.9715 21.2096 12.4195 22.2785 11.8123 23.3474C11.5363 23.8537 11.4811 23.9662 11.4811 23.9662C12.3091 24.4163 14.1858 25.429 15.069 25.8228C15.069 25.8228 15.1794 25.654 15.2898 25.5415C15.621 25.0914 15.8418 24.8101 16.0626 24.3601C16.7249 23.3474 17.2769 22.2222 17.9945 21.2658C19.1536 19.5781 20.5888 17.4402 21.8583 15.8087C22.5759 14.9086 23.4039 14.0084 24.2318 13.2208C24.5078 12.9395 24.9494 12.7145 25.3358 12.6582C26.0534 12.4894 26.4949 13.052 26.2741 13.7834C26.1086 14.2335 25.943 14.7398 25.7222 15.1899C25.115 16.315 24.2318 17.9465 23.5695 19.0717C22.7415 20.5345 22.1895 22.1097 22.6311 23.8537C22.8519 24.7539 23.3487 25.429 24.2318 25.7665C25.2806 26.1603 26.3845 26.0478 27.3781 25.654C29.1996 25.0352 30.69 23.7975 32.1251 22.4473C33.3947 21.2658 34.5538 19.9719 35.8234 18.7342H36.4305C36.4305 18.8467 36.4857 18.9029 36.4305 19.0155C36.2098 19.8031 35.8786 20.5907 35.713 21.4346C35.3818 23.0098 35.989 24.8664 37.3689 25.5977C38.5833 26.2728 39.9632 26.4979 41.3431 26.1041C42.9991 25.654 44.2134 24.5851 45.207 23.2349C45.2622 23.1224 45.3174 23.0661 45.483 23.0098H45.9246C45.8694 23.1786 45.8142 23.3474 45.759 23.5162C45.5382 24.0788 45.2622 24.6976 45.0414 25.2602C43.9926 27.6231 41.8399 32.9676 40.8464 35.3305C40.46 36.2307 40.0736 37.0745 39.6872 37.9747C39.5768 38.256 39.4112 38.5935 39.4112 38.5935C39.4112 38.5935 42.2815 39.7187 43.3303 40.1125C46.9733 31.1674 51.8859 19.0717 55.529 10.1828C54.3698 9.67651 53.0451 8.94514 51.8307 8.38255C51.5547 8.49507 51.5547 8.43881 51.4995 8.60759Z" fill="white"/>
<path d="M73.9651 15.1336C73.9651 15.4712 73.9651 15.7525 73.9651 16.09C73.9651 16.4276 73.9651 16.7651 73.9651 17.1027H73.7995C73.7443 16.9339 73.6339 16.7651 73.5235 16.4838C73.3579 16.2588 73.1924 15.9775 73.0268 15.6962C72.8612 15.4149 72.6956 15.2461 72.5852 15.0774L61.8768 0.0562744H57.3506V25.5415H61.932V10.3516C61.932 10.0141 61.932 9.67653 61.932 9.33897C61.932 9.00142 61.932 8.66387 61.932 8.32632H62.0976C62.208 8.49509 62.3736 8.77639 62.6496 9.22646C62.9256 9.67653 63.1464 10.0141 63.3119 10.2954L74.0203 25.4852H78.4913V0.0562744H73.9651V15.1336Z" fill="white"/>
<path d="M82.0234 0.0562588V25.5977H86.7704V15.1899H98.6932V11.0267H86.7704V4.21941H107.083V25.5977H111.83V4.21941H120L119.944 0L82.0234 0.0562588Z" fill="white"/>
</g>
<defs>
<clipPath id="clip0">
<rect width="120" height="40" fill="white"/>
</clipPath>
</defs>
</svg>
